<svg fill="none" height="24" viewBox="0 0 24 24" width="24" xmlns="http://www.w3.org/2000/svg"><g fill="#000"><path clip-rule="evenodd" d="m14.25 2.5c0-.13807-.1119-.25-.25-.25h-7c-1.51878 0-2.75 1.23122-2.75 2.75v14c0 1.5188 1.23122 2.75 2.75 2.75h10c1.5188 0 2.75-1.2312 2.75-2.75v-9.85294c0-.13807-.1119-.25-.25-.25h-4.5c-.4142 0-.75-.33579-.75-.75zm-.2185 10.8357c.3235.2587.7954.2063 1.0542-.1172.2587-.3234.2063-.7954-.1172-1.0542l-2.4939-1.9951c-.1287-.1053-.293-.1686-.4721-.1692h-.0024-.0064c-.176.0015-.3376.0636-.4649.1665l-2.49729 1.9978c-.32345.2588-.37589.7308-.11713 1.0542.25875.3235.73072.3759 1.05417.1172l1.28155-1.0253v3.4396c0 .4142.3357.75.75.75.4142 0 .75-.3358.75-.75v-3.4395z" fill-rule="evenodd"/><path d="m15.75 2.82414c0-.1845.1926-.30164.3362-.18575.1209.09761.2296.21197.3223.34116l3.0132 4.1979c.0686.09557-.0057.21961-.1234.21961h-3.2983c-.1381 0-.25-.11193-.25-.25z"/></g></svg>